<?xml version="1.0" standalone="no"?>
<!DOCTYPE svg PUBLIC "-//W3C//DTD SVG 20010904//EN"
 "http://www.w3.org/TR/2001/REC-SVG-20010904/DTD/svg10.dtd">
<svg version="1.0" xmlns="http://www.w3.org/2000/svg" viewBox="0 0 1170.000000 1166.000000"
 preserveAspectRatio="xMidYMid meet">

<g transform="translate(0.000000,1166.000000) scale(0.100000,-0.100000)"
fill="#000000" stroke="none">
<path d="M4321 8118 c-5 -13 -136 -349 -291 -748 -155 -399 -285 -733 -288
-743 -4 -16 2 -18 54 -15 l58 3 156 404 c85 223 160 406 165 407 6 2 78 -180
162 -404 l151 -407 262 -3 c247 -2 262 -1 255 15 -9 22 -64 165 -114 298 -46
120 -432 1112 -456 1173 -17 41 -19 42 -61 42 -37 0 -46 -4 -53 -22z"/>
<path d="M6244 8111 c-2 -2 -4 -26 -4 -51 l0 -47 73 -7 c194 -18 272 -49 319
-126 48 -78 51 -107 55 -707 l4 -563 254 0 254 0 4 563 c3 464 6 572 19 617
15 53 57 154 58 137 0 -4 16 4 35 18 50 39 116 56 245 62 209 10 409 -25 560
-99 154 -76 299 -252 346 -420 54 -196 58 -230 58 -513 0 -153 -5 -291 -11
-317 l-10 -48 258 0 257 0 11 33 c66 209 73 494 15 694 -118 414 -426 657
-949 750 -91 16 -167 18 -810 15 -390 -1 -784 1 -873 5 -90 5 -166 6 -168 4z"/>
<path d="M2713 6268 c-6 -7 -15 -29 -22 -48 -6 -19 -38 -102 -71 -185 -34 -87
-55 -154 -50 -159 16 -16 36 2 49 45 20 67 24 69 117 69 l83 0 28 -57 c20 -42
34 -59 51 -61 12 -2 22 0 22 5 0 4 -35 96 -78 203 -63 155 -83 196 -99 198
-11 2 -24 -3 -30 -10z m64 -160 c17 -42 28 -79 25 -82 -6 -7 -142 -8 -142 -2
0 7 51 140 61 159 14 25 20 17 56 -75z"/>
<path d="M3127 6274 c-4 -4 -7 -97 -7 -206 l0 -198 130 0 c108 0 130 3 130 15
0 11 -20 15 -102 17 l-103 3 -5 185 c-4 156 -7 185 -20 188 -9 1 -19 0 -23 -4z"/>
<path d="M3623 6273 c-23 -4 -23 -5 -23 -204 l0 -200 132 3 c92 2 133 7 135
15 3 9 -24 13 -104 15 l-108 3 -3 77 -3 76 28 6 c16 4 51 4 78 2 54 -5 95 1
95 15 0 4 -44 10 -97 11 l-98 3 0 75 0 75 103 3 c82 2 102 6 102 17 0 12 -19
15 -107 14 -60 -1 -118 -4 -130 -6z"/>
<path d="M4094 6267 c-2 -7 -3 -98 -2 -202 3 -172 5 -190 21 -193 16 -3 17 9
17 147 0 88 4 151 9 151 6 0 58 -67 118 -150 69 -96 114 -150 125 -150 17 0
18 15 18 199 0 133 -4 202 -11 207 -25 15 -31 -18 -30 -149 1 -74 -2 -138 -7
-141 -5 -3 -57 62 -117 144 -101 141 -129 168 -141 137z"/>
<path d="M4756 6258 c-9 -12 -16 -26 -16 -30 0 -5 -29 -83 -65 -174 -36 -91
-65 -170 -65 -175 0 -5 8 -9 19 -9 14 0 25 16 41 60 l22 60 89 0 c88 0 90 0
100 -27 28 -75 41 -93 66 -93 16 0 23 4 20 13 -3 6 -34 86 -70 177 -84 215
-87 220 -108 220 -10 0 -25 -10 -33 -22z m63 -135 c17 -43 31 -84 31 -90 0 -9
-21 -13 -70 -13 -38 0 -70 3 -70 7 0 17 63 173 70 173 4 0 22 -35 39 -77z"/>
<path d="M5477 6274 c-16 -5 -17 -21 -15 -202 3 -196 3 -197 26 -200 21 -3 22
-1 22 76 0 89 2 92 71 92 138 0 194 156 78 216 -31 16 -149 27 -182 18z m138
-39 c58 -23 73 -98 30 -140 -20 -21 -34 -25 -80 -25 l-55 0 0 83 c0 46 3 87 7
90 11 12 62 8 98 -8z"/>
<path d="M5935 6270 c-4 -6 -6 -73 -6 -148 2 -151 13 -189 64 -226 42 -31 150
-30 195 2 59 42 67 70 67 229 0 78 -3 144 -7 148 -3 4 -15 4 -26 1 -19 -6 -20
-14 -16 -109 3 -56 2 -124 -2 -152 -12 -94 -100 -145 -170 -99 -43 29 -49 52
-54 209 -4 129 -7 150 -22 153 -9 2 -19 -2 -23 -8z"/>
<path d="M6482 6273 c-47 -9 -15 -27 49 -28 l64 0 5 -185 5 -185 23 0 23 0 2
185 2 185 68 3 c51 2 67 6 67 17 0 13 -24 15 -142 14 -79 -1 -153 -4 -166 -6z"/>
<path d="M6997 6273 c-10 -10 -8 -376 2 -391 5 -8 16 -12 26 -10 16 3 17 19
16 197 -1 107 -4 198 -7 203 -6 10 -28 11 -37 1z"/>
<path d="M7287 6273 c-2 -5 -1 -97 1 -206 l4 -198 126 3 c89 2 127 7 130 16 3
9 -22 12 -102 12 l-106 0 0 153 c0 185 -6 227 -31 227 -10 0 -20 -3 -22 -7z"/>
<path d="M7858 6270 c-82 -25 -130 -101 -130 -206 0 -51 6 -74 26 -108 71
-122 258 -111 317 18 36 80 17 209 -37 258 -46 41 -117 56 -176 38z m109 -40
c40 -24 63 -68 70 -134 16 -153 -104 -251 -201 -165 -81 71 -72 245 16 299 42
25 74 25 115 0z"/>
<path d="M8276 6272 c-4 -7 117 -324 146 -379 6 -13 21 -23 33 -23 18 0 31 26
93 188 40 103 72 195 72 205 0 19 -29 24 -34 5 -18 -61 -121 -328 -126 -328
-8 0 -21 31 -85 200 -20 52 -43 105 -51 118 -14 22 -38 29 -48 14z"/>
<path d="M8902 6268 c-7 -7 -12 -16 -12 -21 0 -4 -29 -81 -64 -170 -85 -218
-83 -209 -55 -205 17 2 27 16 42 61 l19 57 88 0 89 0 28 -57 c20 -42 34 -59
51 -61 12 -2 22 -1 22 3 0 8 -128 330 -148 372 -16 34 -39 42 -60 21z m59
-143 c42 -105 42 -105 -42 -105 -53 0 -70 3 -67 13 31 90 64 167 72 164 5 -2
21 -34 37 -72z"/>
<path d="M3295 5478 c-9 -24 -75 -194 -147 -378 -146 -377 -188 -472 -246
-557 -54 -80 -153 -169 -221 -200 -31 -14 -63 -29 -71 -33 -10 -5 -15 -23 -15
-56 l0 -49 110 5 c158 7 658 5 808 -3 l128 -7 -3 52 -3 52 -105 12 c-187 22
-289 74 -338 173 -24 51 -27 66 -26 161 0 168 19 229 220 745 54 137 55 125
-14 125 l-60 0 -17 -42z"/>
<path d="M4905 5503 c4 -10 20 -54 36 -98 16 -44 36 -96 44 -115 60 -147 236
-637 245 -687 39 -198 -30 -264 -305 -291 l-70 -7 0 -50 0 -50 180 5 c260 7
947 5 1038 -4 l77 -7 0 54 0 54 -42 7 c-59 9 -118 39 -174 89 -84 74 -126 153
-247 467 -25 63 -91 235 -148 382 l-104 268 -269 0 c-251 0 -268 -1 -261 -17z"/>
<path d="M6690 5108 c0 -227 -5 -453 -10 -502 -24 -206 -89 -263 -328 -290
l-107 -12 0 -49 0 -50 195 5 c248 6 776 6 1080 0 l235 -5 0 50 0 50 -105 8
c-216 15 -320 50 -377 125 -63 83 -72 166 -73 675 l0 407 -255 0 -255 0 0
-412z"/>
</g>
</svg>
