<?xml version="1.0" standalone="no"?>
<!DOCTYPE svg PUBLIC "-//W3C//DTD SVG 20010904//EN"
 "http://www.w3.org/TR/2001/REC-SVG-20010904/DTD/svg10.dtd">
<svg version="1.0" xmlns="http://www.w3.org/2000/svg"
 width="675.000000pt" height="424.000000pt" viewBox="0 0 675.000000 424.000000"
 preserveAspectRatio="xMidYMid meet">

<g transform="translate(0.000000,424.000000) scale(0.100000,-0.100000)"
fill="#000000" stroke="none">
<path d="M1831 4108 c-5 -13 -136 -349 -291 -748 -155 -399 -285 -733 -288
-743 -4 -16 2 -18 54 -15 l58 3 79 205 c187 487 234 604 242 607 6 1 78 -181
162 -405 l151 -407 262 -3 c247 -2 262 -1 255 15 -9 22 -64 165 -114 298 -46
120 -432 1112 -456 1173 -17 41 -19 42 -61 42 -37 0 -46 -4 -53 -22z"/>
<path d="M3754 4101 c-2 -2 -4 -26 -4 -51 l0 -47 73 -7 c194 -18 272 -49 319
-126 48 -78 51 -107 55 -707 l4 -563 254 0 254 0 4 563 c3 464 6 572 19 617
15 53 57 154 58 137 0 -4 16 4 35 18 50 39 116 56 245 62 209 10 409 -25 560
-99 154 -76 299 -252 346 -420 54 -196 58 -230 58 -513 0 -153 -5 -291 -11
-317 l-10 -48 258 0 257 0 11 33 c66 209 73 494 15 694 -118 414 -426 657
-949 750 -91 16 -167 18 -820 16 -396 -2 -789 0 -873 5 -85 4 -156 5 -158 3z"/>
<path d="M223 2258 c-6 -7 -15 -29 -22 -48 -6 -19 -38 -102 -71 -185 -34 -87
-55 -154 -50 -159 16 -16 36 2 49 45 20 67 24 69 117 69 l83 0 28 -57 c20 -42
34 -59 51 -61 12 -2 22 0 22 5 0 4 -35 96 -78 203 -63 157 -82 196 -98 198
-12 2 -25 -3 -31 -10z m64 -160 c17 -42 28 -79 25 -82 -6 -7 -142 -8 -142 -2
0 7 51 140 61 159 14 25 20 17 56 -75z"/>
<path d="M637 2264 c-4 -4 -7 -97 -7 -206 l0 -198 130 0 c108 0 130 3 130 15
0 11 -20 15 -102 17 l-103 3 -5 185 c-4 156 -7 185 -20 188 -9 1 -19 0 -23 -4z"/>
<path d="M1133 2263 c-23 -4 -23 -5 -23 -204 l0 -200 132 3 c92 2 133 7 135
15 3 9 -24 13 -104 15 l-108 3 -3 77 -3 76 28 6 c15 4 51 4 79 2 56 -5 94 1
94 15 0 4 -44 10 -97 11 l-98 3 0 75 0 75 103 3 c82 2 102 6 102 17 0 12 -19
15 -107 14 -60 -1 -118 -4 -130 -6z"/>
<path d="M1604 2257 c-2 -7 -3 -98 -2 -202 3 -172 5 -190 21 -193 16 -3 17 9
17 147 0 88 4 151 9 151 6 0 58 -67 118 -150 69 -96 114 -150 125 -150 17 0
18 15 18 199 0 133 -4 202 -11 207 -25 15 -31 -18 -30 -149 1 -74 -2 -138 -7
-141 -5 -3 -57 62 -117 144 -101 141 -129 168 -141 137z"/>
<path d="M2271 2256 c-6 -7 -20 -37 -30 -67 -10 -30 -42 -111 -70 -182 -28
-70 -51 -132 -51 -137 0 -6 8 -10 19 -10 14 0 25 16 41 60 l22 60 89 0 c88 0
90 0 100 -27 28 -75 41 -93 66 -93 16 0 23 4 20 13 -3 6 -34 86 -70 177 -36
91 -71 177 -78 193 -13 29 -40 35 -58 13z m58 -143 c17 -43 31 -84 31 -90 0
-9 -21 -13 -70 -13 -38 0 -70 3 -70 7 0 17 63 173 70 173 4 0 22 -35 39 -77z"/>
<path d="M2987 2264 c-16 -5 -17 -21 -15 -202 3 -196 3 -197 26 -200 21 -3 22
-1 22 76 0 89 2 92 71 92 138 0 194 156 78 216 -31 16 -149 27 -182 18z m138
-39 c58 -23 73 -98 30 -140 -20 -21 -34 -25 -80 -25 l-55 0 0 83 c0 46 3 87 7
90 11 12 62 8 98 -8z"/>
<path d="M3445 2260 c-4 -6 -6 -73 -6 -148 2 -151 13 -189 64 -226 42 -31 150
-30 195 2 59 42 67 70 67 229 0 78 -3 144 -7 148 -3 4 -15 4 -26 1 -19 -6 -20
-14 -16 -109 3 -56 2 -124 -2 -152 -12 -94 -100 -145 -170 -99 -43 29 -49 52
-54 209 -4 129 -7 150 -22 153 -9 2 -19 -2 -23 -8z"/>
<path d="M3992 2263 c-47 -9 -15 -27 49 -28 l64 0 5 -185 5 -185 23 0 23 0 2
185 2 185 68 3 c51 2 67 6 67 17 0 13 -24 15 -142 14 -79 -1 -153 -4 -166 -6z"/>
<path d="M4507 2263 c-10 -10 -8 -376 2 -391 5 -8 16 -12 26 -10 16 3 17 19
16 197 -1 107 -4 198 -7 203 -6 10 -28 11 -37 1z"/>
<path d="M4797 2263 c-2 -5 -1 -97 1 -206 l4 -198 126 3 c89 2 127 7 130 16 3
9 -22 12 -102 12 l-106 0 0 153 c0 185 -6 227 -31 227 -10 0 -20 -3 -22 -7z"/>
<path d="M5368 2260 c-82 -25 -130 -101 -130 -206 0 -51 6 -74 26 -108 71
-122 258 -111 317 18 36 80 17 209 -37 258 -46 41 -117 56 -176 38z m109 -40
c40 -24 63 -68 70 -134 16 -153 -104 -251 -201 -165 -81 71 -72 245 16 299 42
25 74 25 115 0z"/>
<path d="M5786 2262 c-4 -7 116 -321 146 -379 6 -13 21 -23 33 -23 18 0 31 26
93 188 40 103 72 195 72 205 0 19 -29 24 -34 5 -18 -62 -121 -328 -126 -328
-9 0 -6 -6 -72 165 -27 72 -56 140 -64 153 -14 22 -38 29 -48 14z"/>
<path d="M6412 2258 c-7 -7 -12 -16 -12 -21 0 -4 -29 -81 -64 -170 -85 -218
-83 -209 -55 -205 17 2 27 16 42 61 l19 57 88 0 89 0 28 -57 c20 -42 34 -59
51 -61 12 -2 22 -1 22 3 0 8 -128 330 -148 372 -16 34 -39 42 -60 21z m59
-143 c42 -105 42 -105 -42 -105 -53 0 -70 3 -67 13 31 90 64 167 72 164 5 -2
21 -34 37 -72z"/>
<path d="M805 1468 c-9 -24 -75 -194 -147 -378 -146 -377 -188 -472 -246 -557
-54 -80 -153 -169 -221 -200 -31 -14 -63 -29 -71 -33 -10 -5 -15 -23 -15 -56
l0 -49 110 5 c158 7 658 5 808 -3 l128 -7 -3 52 -3 52 -105 12 c-119 14 -219
46 -273 90 -111 87 -124 283 -37 544 34 105 58 169 166 445 54 137 55 125 -14
125 l-60 0 -17 -42z"/>
<path d="M2415 1493 c4 -10 20 -54 36 -98 16 -44 36 -96 44 -115 60 -147 236
-637 245 -687 23 -119 2 -195 -66 -235 -40 -24 -133 -46 -229 -55 l-80 -8 0
-50 0 -50 170 5 c247 7 957 5 1048 -4 l77 -7 0 54 0 54 -42 7 c-94 15 -194 87
-259 188 -44 69 -79 154 -270 645 l-144 373 -269 0 c-251 0 -268 -1 -261 -17z"/>
<path d="M4200 1098 c0 -227 -5 -453 -10 -502 -24 -206 -89 -263 -328 -290
l-107 -12 0 -49 0 -50 195 5 c243 6 769 6 1080 0 l235 -4 0 49 0 50 -105 8
c-216 15 -320 50 -377 125 -63 83 -72 166 -73 675 l0 407 -255 0 -255 0 0
-412z"/>
</g>
</svg>
